# xmcd
#
# Track frame offsets:
#	150
#	15941
#	32258
#	48140
#	67109
#	81871
#	98797
#	111287
#	123912
#	138340
#	147842
#	162368
#
# Disc length: 2595 seconds
#
# Revision: 2
# Processed by: cddbd v1.5.2PL0 Copyright (c) Steve Scherf et al.
# Submitted via: audiograbber 1.83.01
#
DISCID=930a210c
DTITLE=Catherine Britt - Dusty Smiles And Heartbreak Cures
DYEAR=2002
DGENRE=Country
TTITLE0=46 Miles From Alice
TTITLE1=Nashville Blues
TTITLE2=Easy Living
TTITLE3=Dusty Smiles And Heartbreak Cures
TTITLE4=Help Me I'm Falling
TTITLE5=In The Pines
TTITLE6=Hillbilly Pickin' Ramblin' Girl
TTITLE7=It's Not Love (But It's Not Bad) (Duet with Bill Chambers)
TTITLE8=Learning To Forgive My Heart
TTITLE9=That Don't Bother Me
TTITLE10=Move It On Over
TTITLE11=Drive-In Movie
EXTD=
EXTT0=
EXTT1=
EXTT2=
EXTT3=
EXTT4=
EXTT5=
EXTT6=
EXTT7=Duet with Bill Chambers
EXTT8=
EXTT9=
EXTT10=
EXTT11=
PLAYORDER=
